<?xml version="1.0" standalone="no"?>
<!DOCTYPE svg PUBLIC "-//W3C//DTD SVG 20010904//EN"
 "http://www.w3.org/TR/2001/REC-SVG-20010904/DTD/svg10.dtd">
<svg version="1.0" xmlns="http://www.w3.org/2000/svg"
 width="512.000000pt" height="512.000000pt" viewBox="0 0 512.000000 512.000000"
 preserveAspectRatio="xMidYMid meet">

<g transform="translate(0.000000,512.000000) scale(0.100000,-0.100000)"
fill="#fedf00" stroke="none">
<path d="M1834 4779 c-16 -18 -19 -37 -19 -129 0 -127 12 -150 75 -150 63 0
75 23 75 150 0 127 -12 150 -75 150 -25 0 -43 -7 -56 -21z"/>
<path d="M1345 4575 c-43 -42 -34 -68 52 -156 65 -67 81 -79 110 -79 43 0 73
30 73 73 0 29 -12 45 -79 110 -88 86 -114 95 -156 52z"/>
<path d="M2279 4523 c-67 -65 -79 -81 -79 -110 0 -43 30 -73 73 -73 29 0 45
12 110 79 86 88 95 114 52 156 -42 43 -68 34 -156 -52z"/>
<path d="M1773 4406 c-104 -34 -194 -114 -241 -214 -24 -50 -27 -69 -27 -162
0 -99 2 -110 32 -171 39 -80 111 -150 191 -187 50 -24 69 -27 162 -27 99 0
110 2 171 32 80 39 150 111 187 191 24 50 27 69 27 162 0 93 -3 112 -27 162
-37 80 -107 152 -186 190 -56 28 -77 33 -156 35 -57 2 -107 -2 -133 -11z m222
-157 c50 -24 100 -76 121 -125 21 -51 18 -150 -7 -201 -89 -183 -367 -175
-445 13 -34 82 -9 207 54 267 71 68 188 88 277 46z"/>
<path d="M1137 4082 c-24 -27 -22 -85 4 -108 18 -16 37 -19 129 -19 127 0 150
12 150 75 0 61 -19 70 -152 70 -99 0 -117 -3 -131 -18z"/>
<path d="M2377 4082 c-24 -27 -22 -85 4 -108 18 -16 37 -19 129 -19 127 0 150
12 150 75 0 61 -19 70 -152 70 -99 0 -117 -3 -131 -18z"/>
<path d="M3082 3917 c-21 -22 -22 -32 -22 -200 0 -199 3 -209 74 -223 l36 -6
0 -174 0 -174 -60 0 c-47 0 -64 -4 -80 -20 -25 -25 -26 -71 -1 -101 l19 -24
435 -5 434 -5 -251 -492 -251 -493 -707 0 c-414 0 -708 4 -708 9 0 5 130 227
290 494 l289 485 105 4 c93 3 108 6 127 25 27 27 29 75 4 103 -17 18 -30 20
-165 20 -127 0 -149 -2 -162 -17 -8 -10 -169 -276 -357 -592 -227 -381 -343
-584 -343 -604 -1 -38 30 -67 81 -74 l41 -6 -2 -541 -3 -541 -452 -3 -453 -2
0 449 0 448 83 11 c106 14 182 42 256 97 97 71 168 179 196 297 18 78 22 655
4 740 -28 138 -134 281 -255 345 -115 61 -132 63 -525 63 -329 0 -362 -2 -422
-20 -163 -50 -291 -191 -326 -358 -18 -85 -14 -691 4 -771 52 -220 230 -371
468 -396 l67 -7 0 -77 c0 -92 18 -121 75 -121 57 0 75 29 75 122 l0 78 75 0
75 0 0 -450 0 -450 -75 0 -75 0 0 240 0 241 -25 24 c-13 14 -36 25 -50 25 -14
0 -37 -11 -50 -25 l-25 -24 0 -241 0 -240 -255 0 c-323 0 -295 21 -295 -219 1
-189 4 -201 54 -221 38 -14 4974 -14 5012 0 50 20 53 32 54 221 0 237 21 219
-250 219 l-210 0 0 545 0 545 35 0 c73 0 119 46 99 99 -15 38 -672 1141 -697
1169 -19 21 -28 22 -149 22 l-128 0 0 174 0 174 35 6 c19 4 44 17 55 28 18 20
20 36 20 198 0 172 -1 177 -23 198 -23 22 -27 22 -413 22 l-391 0 -21 -23z
m698 -202 l0 -75 -285 0 -285 0 0 75 0 75 285 0 285 0 0 -75z m-110 -400 l0
-175 -175 0 -175 0 0 175 0 175 175 0 175 0 0 -175z m-2487 -282 c70 -33 149
-113 183 -186 l29 -62 3 -323 c3 -364 -1 -395 -64 -489 -57 -83 -135 -133
-239 -152 -77 -14 -563 -14 -640 0 -104 19 -182 69 -239 152 -64 95 -67 124
-64 504 l3 338 26 55 c41 84 107 145 189 174 38 13 99 15 405 13 347 -2 362
-3 408 -24z m3146 -587 c143 -241 261 -440 261 -442 0 -2 -225 -4 -500 -4
-275 0 -500 3 -500 6 0 3 102 208 228 454 171 338 230 446 238 437 6 -7 129
-209 273 -451z m-921 -1138 l-3 -543 -87 -3 -87 -3 -3 436 -3 437 -28 24 -28
24 -439 0 c-301 0 -447 -4 -463 -11 -14 -6 -30 -22 -36 -36 -7 -16 -11 -159
-11 -448 l0 -425 -80 0 -80 0 0 545 0 545 675 0 675 0 -2 -542z m1102 452 l0
-90 -475 0 -475 0 0 90 0 90 475 0 475 0 0 -90z m-1435 -615 l0 -380 -350 0
-350 0 -3 383 -2 382 352 -2 353 -3 0 -380z m1433 223 l-3 -153 -71 -3 c-78
-3 -97 -14 -109 -64 -6 -22 -1 -33 23 -58 28 -27 36 -30 96 -30 l67 0 -3 -147
-3 -148 -472 -3 -473 -2 0 150 0 150 260 0 c210 0 267 3 289 15 46 23 54 66
20 109 l-20 26 -275 0 -274 0 0 155 0 155 475 0 476 0 -3 -152z m462 -833 l0
-75 -2410 0 -2410 0 0 75 0 75 2410 0 2410 0 0 -75z"/>
<path d="M1397 3641 c-86 -88 -95 -114 -52 -156 42 -43 70 -34 157 53 65 65
78 84 78 110 0 42 -31 72 -73 72 -29 0 -45 -12 -110 -79z"/>
<path d="M2220 3700 c-12 -12 -20 -33 -20 -53 0 -29 12 -45 79 -110 88 -86
114 -95 156 -52 43 42 34 68 -52 156 -65 67 -81 79 -110 79 -20 0 -41 -8 -53
-20z"/>
<path d="M1834 3539 c-16 -18 -19 -37 -19 -129 0 -127 12 -150 75 -150 63 0
75 23 75 150 0 127 -12 150 -75 150 -25 0 -43 -7 -56 -21z"/>
<path d="M2675 2799 c-44 -25 -45 -33 -45 -274 0 -301 -24 -275 251 -275 200
0 206 1 226 23 28 30 250 417 258 449 5 19 0 33 -18 54 l-25 29 -314 2 c-216
2 -319 -1 -333 -8z m305 -269 l0 -130 -100 0 -100 0 0 130 0 130 100 0 100 0
0 -130z m180 123 c0 -5 -7 -17 -15 -27 -14 -19 -15 -19 -15 7 0 17 5 27 15 27
8 0 15 -3 15 -7z"/>
</g>
</svg>
