<?xml version="1.0" standalone="no"?>
<!DOCTYPE svg PUBLIC "-//W3C//DTD SVG 20010904//EN"
 "http://www.w3.org/TR/2001/REC-SVG-20010904/DTD/svg10.dtd">
<svg version="1.0" xmlns="http://www.w3.org/2000/svg"
 width="512.000000pt" height="512.000000pt" viewBox="0 0 512.000000 512.000000"
 preserveAspectRatio="xMidYMid meet">

<g transform="translate(0.000000,512.000000) scale(0.100000,-0.100000)"
fill="#90ad3c" stroke="none">
<path d="M665 5015 l-25 -24 0 -1736 0 -1735 -280 0 -280 0 0 -80 0 -80 480 0
480 0 0 -480 0 -480 -480 0 -480 0 0 -80 0 -80 630 0 630 0 160 -80 160 -80
506 0 c369 0 518 3 548 12 55 16 138 99 154 154 9 30 12 198 12 633 l0 592
-25 24 -24 25 -375 0 -375 0 -3 283 -3 282 -34 63 c-62 114 -145 163 -293 170
-93 4 -97 4 -122 -21 l-26 -26 0 -238 0 -238 -138 -138 -137 -137 -263 0 -262
0 0 1680 0 1680 1440 0 1440 0 0 -295 0 -296 25 -24 24 -25 296 0 295 0 0
-840 0 -840 80 0 80 0 0 897 0 898 -343 342 -342 343 -1553 0 -1553 0 -24 -25z
m3360 -435 l180 -180 -183 0 -182 0 0 180 c0 99 1 180 3 180 1 0 83 -81 182
-180z m-2176 -2448 c14 -10 34 -31 45 -46 20 -26 21 -44 26 -358 l5 -330 24
-19 c22 -18 44 -19 397 -19 l374 0 0 -80 0 -80 -320 0 -320 0 0 -80 0 -80 320
0 320 0 0 -80 0 -80 -320 0 -320 0 0 -80 0 -80 320 0 320 0 0 -80 0 -80 -320
0 -320 0 0 -80 0 -80 320 0 320 0 0 -55 c0 -46 -4 -60 -25 -80 l-24 -25 -486
0 -485 0 -160 80 -160 80 -90 0 -90 0 0 480 0 480 97 0 97 0 183 183 183 183
0 218 0 219 33 -7 c17 -3 43 -14 56 -24z"/>
<path d="M960 4640 l0 -80 1280 0 1280 0 0 80 0 80 -1280 0 -1280 0 0 -80z"/>
<path d="M960 4320 l0 -80 1280 0 1280 0 0 80 0 80 -1280 0 -1280 0 0 -80z"/>
<path d="M960 4000 l0 -80 1280 0 1280 0 0 80 0 80 -1280 0 -1280 0 0 -80z"/>
<path d="M2716 3744 c-350 -63 -639 -356 -701 -709 -104 -600 417 -1125 1013
-1021 479 84 801 540 718 1015 -85 484 -544 803 -1030 715z m379 -178 c113
-36 198 -89 290 -181 91 -91 144 -175 182 -290 23 -71 26 -96 26 -215 0 -119
-3 -144 -26 -215 -38 -115 -91 -199 -182 -290 -91 -91 -175 -144 -290 -182
-71 -23 -96 -26 -215 -26 -119 0 -144 3 -215 26 -114 38 -198 90 -290 182 -91
91 -144 175 -182 290 -23 71 -26 96 -26 215 -1 118 3 145 25 212 40 120 92
204 182 293 114 113 237 179 380 205 89 16 251 5 341 -24z"/>
<path d="M2991 2972 c-74 -185 -136 -339 -138 -342 -2 -2 -54 46 -116 108 -62
62 -117 112 -123 112 -13 0 -104 -92 -104 -106 0 -5 76 -85 168 -177 144 -143
173 -167 199 -167 17 0 40 8 51 18 25 21 347 821 335 833 -6 5 -132 60 -137
59 -1 0 -61 -152 -135 -338z"/>
<path d="M3986 2470 c-63 -16 -153 -70 -197 -117 -67 -73 -101 -158 -107 -269
-5 -91 -4 -96 31 -172 81 -177 117 -340 124 -554 l6 -158 -98 0 c-129 0 -168
-13 -230 -75 -57 -56 -75 -102 -75 -189 l0 -56 -56 0 c-87 0 -133 -18 -189
-75 -64 -63 -75 -100 -75 -244 0 -105 1 -113 25 -136 20 -21 34 -25 80 -25
l55 0 0 -135 c0 -131 1 -137 25 -160 l24 -25 751 0 751 0 24 25 c24 23 25 29
25 160 l0 135 55 0 c46 0 60 4 80 25 24 23 25 31 25 136 0 137 -11 177 -67
239 -51 57 -108 80 -195 80 l-58 0 0 56 c0 81 -18 129 -67 184 -57 63 -106 80
-236 80 l-100 0 6 163 c9 221 42 368 124 549 35 76 36 81 31 173 -5 84 -10
104 -41 169 -67 134 -188 215 -335 222 -42 2 -94 -1 -116 -6z m168 -162 c55
-16 138 -99 154 -154 21 -71 15 -126 -23 -214 -80 -187 -115 -350 -122 -577
l-6 -163 -78 0 -79 0 0 113 c0 212 -38 411 -115 602 -67 165 -60 241 30 330
70 71 145 90 239 63z m381 -1293 c21 -20 25 -34 25 -80 l0 -55 -480 0 -480 0
0 55 c0 46 4 60 25 80 l24 25 431 0 431 0 24 -25z m320 -320 c21 -20 25 -34
25 -80 l0 -55 -800 0 -800 0 0 55 c0 46 4 60 25 80 l24 25 751 0 751 0 24 -25z
m-135 -375 l0 -80 -640 0 -640 0 0 80 0 80 640 0 640 0 0 -80z"/>
</g>
</svg>
