<?xml version="1.0" standalone="no"?>
<!DOCTYPE svg PUBLIC "-//W3C//DTD SVG 20010904//EN"
 "http://www.w3.org/TR/2001/REC-SVG-20010904/DTD/svg10.dtd">
<svg version="1.0" xmlns="http://www.w3.org/2000/svg"
 width="512.000000pt" height="513.000000pt" viewBox="0 0 512.000000 513.000000"
 preserveAspectRatio="xMidYMid meet">

<g transform="translate(0.000000,513.000000) scale(0.100000,-0.100000)"
fill="#90ad3c" stroke="none">
<path d="M335 5111 c-16 -10 -96 -86 -177 -169 -141 -142 -148 -152 -148 -190
0 -34 32 -93 224 -414 166 -276 231 -377 251 -386 16 -7 76 -12 153 -12 l127
0 618 -618 617 -617 -368 -368 -367 -367 -75 16 c-115 25 -336 15 -454 -20
-372 -111 -648 -415 -715 -790 -17 -94 -13 -279 8 -382 29 -142 54 -176 129
-176 32 0 52 17 256 221 l221 221 105 0 105 0 113 -113 112 -112 0 -100 0 -99
-226 -228 -227 -227 6 -43 c8 -60 37 -82 148 -108 331 -77 673 11 911 237 159
149 255 316 305 524 22 93 24 295 4 397 l-14 73 294 295 294 295 67 -73 68
-73 -34 -35 c-65 -68 -72 -112 -27 -162 25 -28 36 -33 71 -32 35 1 49 8 83 43
l42 41 645 -702 c355 -385 665 -716 690 -735 277 -212 677 -140 870 157 69
107 82 167 78 343 -3 142 -5 156 -31 212 -15 33 -42 82 -60 108 -20 31 -301
296 -739 699 -390 357 -708 653 -708 657 0 4 16 22 35 41 19 19 37 48 41 66
11 59 -36 113 -97 114 -29 0 -47 -9 -85 -44 l-49 -43 -72 66 -72 67 297 297
298 297 79 -16 c108 -22 317 -15 429 15 345 92 619 364 715 711 18 63 21 103
21 255 0 184 -12 271 -46 336 -18 35 -67 59 -105 52 -17 -3 -102 -81 -245
-224 l-219 -219 -100 0 -100 0 -113 113 -112 112 0 100 0 100 171 170 c226
225 269 276 269 321 0 58 -38 87 -149 113 -236 56 -477 29 -686 -77 -90 -45
-142 -81 -221 -153 -163 -147 -261 -317 -315 -549 -18 -74 -17 -288 0 -378
l14 -73 -369 -370 -369 -369 -612 612 -613 613 0 128 c0 85 -5 139 -14 160
-11 28 -66 64 -392 260 -223 133 -390 227 -404 227 -14 0 -38 -8 -55 -19z
m3873 -191 c-1 -5 -72 -81 -155 -169 -84 -88 -157 -171 -163 -186 -16 -42 -13
-309 4 -348 8 -18 84 -103 168 -189 l153 -158 185 0 184 0 174 173 174 172 -5
-125 c-4 -104 -10 -139 -34 -212 -94 -274 -320 -475 -598 -533 -96 -19 -241
-19 -330 1 -118 28 -141 28 -177 6 -57 -36 -2016 -2004 -2023 -2033 -4 -14 3
-62 15 -109 72 -281 -1 -557 -203 -768 -116 -120 -263 -197 -432 -227 -92 -16
-215 -20 -215 -7 0 4 70 77 156 162 86 85 162 169 170 187 19 45 20 311 0 356
-7 18 -86 103 -174 190 l-160 157 -183 0 -183 0 -173 -172 -173 -172 0 94 c1
221 72 391 230 550 122 124 245 192 401 225 92 20 246 19 334 -1 118 -28 141
-28 177 -6 18 12 479 468 1024 1014 684 685 994 1002 998 1021 4 16 -2 60 -16
110 -30 112 -30 297 0 408 38 140 120 277 229 380 109 104 230 167 383 200 93
19 244 25 238 9z m-3502 -197 l294 -178 0 -134 0 -135 642 -643 643 -643 -70
-70 -70 -70 -635 634 c-353 353 -647 640 -663 646 -16 5 -81 10 -145 10 l-118
0 -172 289 c-95 158 -172 292 -172 297 0 8 160 174 169 174 2 0 136 -80 297
-177z m2509 -2368 l70 -64 -220 -221 -220 -221 -69 71 -70 71 215 215 c117
118 216 214 219 214 3 -1 37 -30 75 -65z m911 -836 c379 -348 702 -647 717
-665 15 -18 40 -59 55 -91 24 -52 27 -70 27 -163 0 -93 -3 -112 -27 -162 -75
-161 -262 -261 -429 -230 -72 13 -132 41 -187 85 -22 18 -304 320 -627 672
-323 352 -608 661 -634 688 l-46 47 225 225 c124 124 228 225 231 225 4 0 317
-284 695 -631z"/>
<path d="M3415 3546 c-32 -32 -40 -69 -25 -107 16 -39 46 -59 88 -59 44 0 68
14 88 52 34 66 -11 138 -88 138 -28 0 -46 -7 -63 -24z"/>
<path d="M2512 2648 c-354 -354 -650 -657 -657 -673 -28 -64 21 -135 93 -135
35 0 64 27 680 643 354 353 650 656 657 672 28 64 -21 135 -93 135 -35 0 -64
-27 -680 -642z"/>
<path d="M1607 1739 c-29 -17 -49 -68 -43 -105 12 -63 99 -97 152 -59 76 52
38 175 -53 175 -21 0 -46 -5 -56 -11z"/>
<path d="M3504 1652 c-28 -22 -44 -54 -44 -89 0 -23 75 -103 472 -500 316
-316 483 -476 504 -483 62 -21 124 26 124 94 0 41 -4 45 -478 518 -471 471
-478 478 -517 478 -23 0 -49 -8 -61 -18z"/>
</g>
</svg>
