<?xml version="1.0" standalone="no"?>
<!DOCTYPE svg PUBLIC "-//W3C//DTD SVG 20010904//EN"
 "http://www.w3.org/TR/2001/REC-SVG-20010904/DTD/svg10.dtd">
<svg version="1.0" xmlns="http://www.w3.org/2000/svg"
 width="512.000000pt" height="512.000000pt" viewBox="0 0 512.000000 512.000000"
 preserveAspectRatio="xMidYMid meet">

<g transform="translate(0.000000,512.000000) scale(0.100000,-0.100000)"
fill="#fedf00" stroke="none">
<path d="M846 4197 c-434 -244 -799 -453 -811 -465 -32 -30 -37 -70 -16 -112
16 -32 32 -41 202 -112 101 -42 193 -81 203 -86 16 -7 -17 -28 -175 -116 -107
-59 -204 -118 -217 -132 -26 -30 -29 -75 -5 -115 17 -29 44 -42 321 -155 51
-21 89 -41 85 -45 -5 -4 -91 -53 -192 -109 -101 -57 -194 -113 -208 -124 -33
-29 -39 -82 -15 -122 16 -25 51 -43 221 -113 110 -46 201 -84 201 -86 0 -1
-88 -51 -196 -111 -214 -119 -239 -141 -230 -203 3 -19 16 -45 28 -57 13 -12
291 -135 618 -274 327 -138 656 -278 730 -311 487 -213 2047 -869 2068 -869
34 0 1586 910 1630 956 36 38 41 71 15 115 -17 29 -60 49 -330 159 l-83 34
200 118 c153 91 204 126 216 150 20 39 11 91 -21 116 -13 11 -105 52 -205 93
-99 40 -180 76 -180 79 0 3 82 54 182 113 207 122 210 124 226 154 16 29 15
49 -4 88 -17 36 -33 44 -322 161 l-92 38 182 107 c101 59 195 117 210 128 53
43 43 133 -20 165 -15 8 -342 143 -727 301 -385 157 -869 358 -1076 446 -207
87 -380 159 -385 159 -5 0 -275 108 -599 240 -325 132 -601 240 -615 240 -14
0 -359 -188 -814 -443z m1312 32 c259 -106 472 -196 472 -199 0 -3 -273 -186
-606 -408 l-606 -403 -534 227 c-294 125 -534 230 -534 234 0 10 1313 748
1325 745 6 -1 223 -90 483 -196z m959 -390 c125 -51 231 -95 234 -98 4 -3
-283 -199 -636 -436 -354 -236 -649 -439 -657 -450 -10 -16 -14 -171 -18 -791
l-5 -772 -252 107 -253 106 0 772 0 773 668 445 c367 245 672 443 679 441 6
-3 114 -46 240 -97z m1085 -445 c443 -180 584 -242 575 -250 -7 -7 -309 -186
-671 -398 l-659 -387 -541 230 c-298 126 -541 232 -541 235 0 3 272 188 605
411 406 272 612 405 625 402 11 -2 284 -111 607 -243z m-3193 -220 l321 -137
0 -165 c0 -152 -1 -164 -17 -160 -28 8 -974 411 -971 414 11 10 325 183 335
184 6 0 156 -61 332 -136z m-2 -551 l323 -137 0 -169 c0 -93 -4 -167 -9 -165
-143 55 -970 415 -968 421 3 9 307 185 322 186 5 1 155 -61 332 -136z m3630
35 c84 -34 152 -63 150 -64 -11 -11 -1334 -787 -1342 -787 -10 1 -1129 475
-1177 499 l-28 15 0 159 c0 87 3 161 8 163 4 2 270 -109 592 -246 344 -146
598 -249 616 -249 23 0 160 76 515 285 266 157 491 286 499 287 8 0 84 -28
167 -62z m-3626 -594 l319 -136 0 -164 c0 -90 -4 -164 -8 -164 -8 0 -974 409
-980 415 -5 4 322 185 336 185 7 0 157 -61 333 -136z m3617 44 c83 -34 152
-65 152 -68 0 -3 -300 -182 -667 -398 l-666 -392 -581 246 c-320 136 -591 251
-603 257 -23 10 -23 14 -23 175 0 152 1 164 18 160 9 -3 274 -114 587 -248
314 -133 586 -244 605 -246 31 -4 89 27 525 285 270 160 492 290 495 291 3 0
74 -28 158 -62z m4 -555 c135 -56 156 -68 141 -78 -51 -34 -1307 -768 -1321
-771 -10 -3 -285 109 -612 248 l-595 253 -3 169 c-2 133 0 167 10 163 7 -3
276 -116 598 -252 450 -190 592 -245 615 -242 17 3 248 134 515 291 267 157
487 285 490 286 2 0 75 -30 162 -67z"/>
</g>
</svg>
