<?xml version="1.0" standalone="no"?>
<!DOCTYPE svg PUBLIC "-//W3C//DTD SVG 20010904//EN"
 "http://www.w3.org/TR/2001/REC-SVG-20010904/DTD/svg10.dtd">
<svg version="1.0" xmlns="http://www.w3.org/2000/svg"
 width="512.000000pt" height="512.000000pt" viewBox="0 0 512.000000 512.000000"
 preserveAspectRatio="xMidYMid meet">

<g transform="translate(0.000000,512.000000) scale(0.100000,-0.100000)"
fill="#90ad3c" stroke="none">
<path d="M1367 5110 c-155 -27 -297 -152 -359 -316 l-23 -59 -3 -1311 -3
-1312 -87 -4 c-130 -7 -205 -55 -252 -162 -39 -86 -21 -214 37 -278 15 -17 15
-19 0 -36 -33 -36 -59 -113 -59 -173 0 -54 -2 -59 -22 -59 -80 0 -248 -71
-339 -144 -104 -84 -199 -238 -232 -378 -17 -72 -20 -211 -5 -287 16 -88 69
-202 126 -278 89 -116 197 -193 339 -241 l80 -27 780 0 780 0 45 23 c25 13 59
37 77 54 90 87 102 255 24 354 l-20 26 26 39 c15 22 32 61 38 87 l12 47 52 3
51 3 0 -64 c0 -280 217 -544 495 -602 104 -22 1587 -22 1690 0 228 48 423 234
480 460 13 51 15 221 15 1248 0 1310 3 1239 -62 1374 -72 147 -212 267 -371
319 -77 25 -96 27 -319 32 l-237 4 -4 407 c-4 453 -5 462 -75 566 -33 48 -401
447 -507 549 -58 55 -119 95 -183 120 -57 21 -62 21 -997 22 -517 1 -962 -2
-988 -6z m1923 -484 l0 -335 26 -20 c26 -20 38 -21 329 -21 l303 0 6 -31 c3
-17 6 -197 6 -400 l0 -368 -502 -4 c-441 -3 -510 -6 -562 -21 -179 -53 -325
-174 -402 -333 -65 -135 -64 -101 -64 -1231 l0 -1023 -76 3 c-64 3 -79 6 -90
23 -11 18 -10 25 16 63 60 89 59 202 -1 297 -30 47 -30 48 -11 69 70 77 75
218 12 312 l-30 45 30 40 c56 78 61 202 9 285 -30 49 -102 109 -147 122 -28 9
-179 12 -516 12 l-476 0 0 1300 c0 1274 0 1300 20 1353 22 57 81 127 133 154
81 42 72 42 1050 42 l937 1 0 -334z m373 -17 c98 -103 177 -190 177 -193 0 -3
-88 -6 -195 -6 l-195 0 0 212 c0 207 1 212 18 193 10 -11 98 -104 195 -206z
m971 -1337 c112 -42 191 -104 254 -201 76 -118 72 -35 72 -1347 0 -1137 -1
-1174 -20 -1235 -45 -147 -150 -255 -306 -315 -46 -17 -96 -19 -814 -22 -512
-2 -788 1 -835 8 -195 30 -360 188 -395 379 -6 34 -10 474 -10 1185 0 1233 -1
1212 57 1318 53 99 166 194 270 229 75 25 160 27 908 25 756 -2 760 -2 819
-24z m-2524 -1339 c75 -44 71 -151 -6 -188 -29 -14 -107 -15 -649 -13 l-617 3
-29 33 c-23 25 -29 42 -29 76 0 38 5 48 35 75 l36 31 615 0 c557 0 619 -2 644
-17z m21 -399 c35 -35 42 -85 19 -129 -29 -54 -34 -55 -487 -55 l-418 0 -80
26 c-67 22 -104 27 -232 32 l-153 5 0 42 c0 46 27 90 64 105 11 5 299 8 638 7
l618 -2 31 -31z m-1037 -294 c96 -24 171 -66 240 -134 113 -111 160 -223 160
-376 -1 -146 -46 -264 -140 -368 -181 -200 -489 -227 -707 -62 -120 91 -187
206 -210 363 -31 216 89 435 294 536 127 62 234 74 363 41z m-636 -57 c-14
-16 -39 -49 -57 -75 -30 -46 -34 -48 -78 -48 l-47 0 35 36 c35 38 144 114 162
114 6 0 -1 -12 -15 -27z m1659 -19 c57 -43 60 -127 6 -171 -27 -22 -34 -23
-274 -23 l-246 0 -24 52 c-13 29 -43 78 -67 111 l-43 58 310 -3 c296 -3 311
-4 338 -24z m-1822 -306 c-4 -29 -9 -56 -12 -60 -2 -5 -31 -8 -64 -8 -32 0
-59 3 -59 8 0 7 18 76 25 100 3 8 24 12 61 12 l56 0 -7 -52z m1828 -78 c38
-30 52 -80 33 -123 -28 -68 -43 -72 -295 -75 l-224 -3 7 62 c3 34 6 84 6 110
l0 49 224 0 c209 0 225 -1 249 -20z m-1833 -170 c4 -14 10 -42 14 -62 l7 -38
-54 0 c-60 0 -71 11 -83 91 l-7 40 58 -3 c53 -3 59 -5 65 -28z m1838 -220 c50
-49 47 -117 -8 -165 -21 -19 -38 -20 -368 -23 l-345 -3 59 63 c32 35 70 85 84
111 l25 47 262 0 261 0 30 -30z m-1723 -56 c9 -14 33 -44 53 -67 l37 -41 -61
33 c-34 18 -76 48 -95 67 l-33 34 41 0 c33 0 44 -5 58 -26z"/>
<path d="M1602 4083 c-21 -8 -43 -61 -36 -88 14 -57 -12 -55 742 -55 l693 0
24 25 c14 13 25 36 25 50 0 14 -11 37 -25 50 l-24 25 -693 -1 c-381 0 -699 -3
-706 -6z"/>
<path d="M3225 4065 c-14 -13 -25 -36 -25 -50 0 -14 11 -37 25 -50 23 -24 30
-25 145 -25 115 0 122 1 145 25 14 13 25 36 25 50 0 14 -11 37 -25 50 -23 24
-30 25 -145 25 -115 0 -122 -1 -145 -25z"/>
<path d="M1623 3713 c-27 -5 -63 -48 -63 -74 0 -10 11 -31 24 -46 24 -28 26
-28 154 -31 148 -4 197 8 208 52 11 44 -4 76 -41 92 -33 13 -224 18 -282 7z"/>
<path d="M2164 3713 c-55 -11 -76 -85 -35 -126 l22 -22 642 -3 c353 -2 657 0
675 3 85 16 98 114 18 145 -26 10 -1272 13 -1322 3z"/>
<path d="M1883 3438 c-24 -12 -43 -55 -43 -99 0 -24 -7 -31 -47 -49 -87 -39
-131 -101 -140 -200 -12 -127 55 -219 198 -274 169 -65 209 -102 209 -195 0
-101 -48 -145 -157 -144 -48 0 -72 6 -107 27 -25 14 -49 32 -53 40 -15 24 -51
38 -73 26 -47 -25 -52 -84 -13 -131 27 -31 133 -89 164 -89 12 0 18 -13 22
-47 12 -111 132 -112 144 -1 5 43 8 46 45 57 21 7 57 28 79 48 58 53 82 104
87 193 10 169 -50 249 -244 326 -58 23 -112 52 -132 71 -32 31 -34 36 -30 83
6 59 27 86 77 100 57 16 111 11 186 -15 62 -22 72 -23 91 -10 27 17 38 48 30
80 -7 25 -93 75 -132 75 -37 0 -54 11 -54 35 0 40 -21 82 -46 94 -29 13 -32
13 -61 -1z"/>
<path d="M2974 3109 c-49 -14 -119 -82 -143 -140 -21 -48 -22 -63 -19 -253 3
-221 6 -233 70 -297 62 -62 104 -73 281 -77 176 -4 198 -1 227 30 26 28 25 58
-1 92 l-20 26 -155 0 c-250 0 -254 4 -254 238 0 169 5 193 44 224 19 16 75 18
769 18 l749 0 29 -29 29 -29 0 -180 c0 -178 0 -179 -25 -204 -14 -14 -39 -28
-56 -32 -18 -3 -218 -6 -446 -6 -251 0 -422 -4 -433 -10 -27 -14 -41 -62 -26
-91 24 -49 30 -49 506 -47 445 3 445 3 490 26 63 33 95 66 122 126 21 48 23
64 23 241 0 213 -8 247 -76 314 -74 75 -24 71 -884 70 -423 0 -784 -5 -801
-10z"/>
<path d="M2905 2196 c-36 -16 -82 -67 -91 -100 -3 -13 -4 -99 -2 -192 3 -156
5 -171 25 -200 40 -56 72 -64 260 -64 193 0 221 8 261 76 21 37 22 48 20 216
-3 160 -5 179 -24 204 -49 66 -59 69 -247 71 -128 2 -180 -1 -202 -11z m325
-271 l0 -135 -135 0 -135 0 0 135 0 135 135 0 135 0 0 -135z"/>
<path d="M3571 2188 c-76 -40 -86 -73 -86 -268 0 -185 8 -213 75 -257 31 -22
43 -23 210 -23 167 0 179 1 210 23 70 47 75 61 78 239 4 187 -6 230 -66 276
-35 27 -38 27 -206 30 -163 3 -173 2 -215 -20z m337 -265 l3 -133 -136 0 -135
0 0 135 0 136 133 -3 132 -3 3 -132z"/>
<path d="M4265 2194 c-85 -44 -95 -74 -95 -271 0 -184 12 -224 79 -261 36 -20
52 -22 212 -22 194 0 219 7 259 72 18 30 20 51 20 207 0 160 -2 176 -22 212
-38 67 -77 79 -264 79 -125 0 -165 -3 -189 -16z m325 -269 l0 -135 -135 0
-135 0 0 135 0 135 135 0 135 0 0 -135z"/>
<path d="M2931 1530 c-46 -11 -83 -40 -103 -81 -15 -28 -18 -62 -18 -197 0
-185 7 -214 66 -258 37 -29 38 -29 203 -32 157 -3 168 -2 210 20 83 43 86 53
86 266 0 180 -1 188 -23 220 -42 58 -70 66 -237 69 -82 1 -165 -2 -184 -7z
m297 -282 l-3 -133 -132 -3 -133 -3 0 136 0 135 135 0 136 0 -3 -132z"/>
<path d="M3611 1530 c-44 -10 -81 -39 -105 -80 -15 -26 -20 -58 -24 -159 -5
-163 7 -234 50 -278 44 -45 80 -53 248 -53 131 0 150 2 190 23 33 16 51 34 68
67 20 40 22 59 22 190 0 80 -5 161 -10 180 -13 47 -68 99 -116 111 -47 10
-276 10 -323 -1z m297 -282 l-3 -133 -132 -3 -133 -3 0 136 0 135 135 0 136 0
-3 -132z"/>
<path d="M4317 1526 c-28 -7 -63 -27 -82 -46 -66 -64 -66 -65 -63 -560 3 -487
1 -471 64 -534 55 -55 78 -61 219 -61 120 0 133 2 175 25 24 14 58 45 75 68
l30 44 3 462 3 462 -24 44 c-15 29 -40 55 -70 74 -44 27 -55 29 -164 32 -79 3
-134 -1 -166 -10z m261 -158 c9 -9 12 -119 12 -432 0 -232 -4 -426 -8 -432
-16 -24 -54 -34 -132 -34 -73 0 -83 3 -105 25 l-25 24 0 411 c0 264 4 418 10
431 10 17 22 19 123 19 75 0 117 -4 125 -12z"/>
<path d="M2937 891 c-50 -10 -88 -39 -109 -82 -15 -28 -18 -62 -18 -205 0
-161 1 -173 23 -204 49 -72 58 -75 261 -75 l183 0 37 29 c61 46 68 74 64 270
-3 160 -4 173 -26 204 -41 57 -70 65 -232 68 -80 2 -162 -1 -183 -5z m291
-283 l-3 -133 -132 -3 -133 -3 0 136 0 135 135 0 136 0 -3 -132z"/>
<path d="M3617 890 c-46 -9 -86 -37 -109 -76 -23 -40 -36 -275 -19 -355 13
-61 52 -109 104 -128 16 -6 97 -11 181 -11 138 0 156 2 196 22 33 17 51 35 68
68 20 40 22 58 22 197 0 168 -8 201 -56 246 -15 15 -49 31 -76 37 -55 11 -252
12 -311 0z m291 -282 l-3 -133 -132 -3 -133 -3 0 136 0 135 135 0 136 0 -3
-132z"/>
<path d="M941 1118 c-31 -11 -50 -37 -51 -65 0 -13 -4 -23 -9 -23 -17 0 -71
-52 -88 -84 -9 -17 -16 -56 -17 -86 -1 -92 40 -139 167 -190 63 -25 84 -51 73
-93 -5 -23 -30 -37 -67 -37 -9 0 -33 13 -54 30 -48 38 -86 39 -114 4 -12 -15
-21 -36 -21 -46 0 -36 34 -79 81 -101 35 -16 48 -29 53 -50 4 -18 17 -32 39
-43 31 -15 36 -15 66 0 21 11 34 27 37 46 4 19 16 32 34 40 59 25 100 101 100
187 0 92 -49 152 -167 204 -72 31 -87 46 -76 75 6 16 49 16 146 -2 29 -5 43
-2 57 11 47 43 29 103 -42 135 -27 12 -45 29 -53 48 -15 35 -59 53 -94 40z"/>
</g>
</svg>
