<?xml version="1.0" standalone="no"?>
<!DOCTYPE svg PUBLIC "-//W3C//DTD SVG 20010904//EN"
 "http://www.w3.org/TR/2001/REC-SVG-20010904/DTD/svg10.dtd">
<svg version="1.0" xmlns="http://www.w3.org/2000/svg"
 width="512.000000pt" height="512.000000pt" viewBox="0 0 512.000000 512.000000"
 preserveAspectRatio="xMidYMid meet">

<g transform="translate(0.000000,512.000000) scale(0.100000,-0.100000)"
fill="#90ad3c" stroke="none">
<path d="M2370 4949 c-542 -67 -1003 -373 -1273 -844 -123 -215 -195 -461
-213 -727 l-7 -98 -106 0 c-172 0 -279 -38 -382 -137 -64 -61 -111 -141 -134
-228 -65 -251 94 -513 352 -580 43 -11 117 -15 301 -15 l243 0 24 25 25 24 0
431 0 431 -25 24 c-20 21 -34 25 -81 25 l-57 0 7 96 c19 272 106 526 257 755
84 126 282 324 408 408 262 174 535 256 851 256 319 0 586 -81 851 -256 126
-84 324 -282 408 -408 150 -227 238 -484 257 -755 l7 -96 -57 0 c-47 0 -61 -4
-81 -25 l-25 -24 0 -431 0 -431 25 -24 c20 -21 34 -25 80 -25 l55 0 0 -135 c0
-131 -1 -137 -25 -160 l-24 -25 -304 0 -305 0 -12 30 c-17 42 -90 104 -138
118 -51 16 -253 15 -306 0 -55 -16 -138 -99 -154 -154 -28 -94 -8 -169 63
-240 66 -66 106 -77 267 -72 102 3 130 7 164 25 44 24 98 79 109 112 6 21 12
21 312 21 211 0 318 4 347 12 55 16 138 99 154 154 7 24 12 100 12 178 l0 136
108 0 c173 0 279 38 383 137 197 187 197 499 0 686 -103 99 -210 137 -382 137
l-106 0 -7 98 c-29 426 -192 787 -491 1088 -248 250 -551 408 -900 469 -109
20 -372 27 -475 14z m-1650 -2150 l0 -321 -47 7 c-63 9 -157 60 -194 104 -56
68 -73 118 -73 211 0 70 4 94 24 135 50 103 160 179 268 184 l22 1 0 -321z
m320 1 l0 -320 -80 0 -80 0 0 320 0 320 80 0 80 0 0 -320z m3200 0 l0 -320
-80 0 -80 0 0 320 0 320 80 0 80 0 0 -320z m295 289 c65 -31 109 -73 146 -141
31 -58 34 -70 34 -148 0 -78 -3 -90 -34 -148 -19 -35 -48 -74 -64 -88 -45 -38
-117 -71 -170 -79 l-47 -7 0 322 0 322 47 -7 c26 -4 65 -15 88 -26z m-1280
-1114 c16 -15 25 -36 25 -55 0 -19 -9 -40 -25 -55 -23 -24 -31 -25 -135 -25
-104 0 -112 1 -135 25 -16 15 -25 36 -25 55 0 19 9 40 25 55 23 24 31 25 135
25 104 0 112 -1 135 -25z"/>
<path d="M2265 4615 c-25 -24 -25 -27 -25 -190 0 -141 -2 -167 -16 -172 -10
-4 -52 30 -133 111 -104 102 -122 116 -152 116 -30 0 -52 -18 -226 -193 -175
-174 -193 -196 -193 -226 0 -30 14 -48 116 -152 81 -81 115 -123 111 -133 -5
-14 -31 -16 -172 -16 -163 0 -166 0 -190 -25 l-25 -24 0 -271 0 -271 25 -24
c24 -25 27 -25 190 -25 141 0 167 -2 172 -16 4 -10 -30 -52 -111 -133 -102
-104 -116 -122 -116 -152 0 -30 18 -52 193 -226 174 -175 196 -193 226 -193
30 0 48 14 152 116 81 81 123 115 133 111 14 -5 16 -31 16 -172 0 -163 0 -166
25 -190 l24 -25 271 0 271 0 24 25 c25 24 25 27 25 190 0 141 2 167 16 172 10
4 52 -30 133 -111 104 -102 122 -116 152 -116 30 0 52 18 226 193 175 174 193
196 193 226 0 30 -14 48 -116 152 -81 81 -115 123 -111 133 5 14 31 16 172 16
163 0 166 0 190 25 l25 24 0 271 0 271 -25 24 c-24 25 -27 25 -190 25 -141 0
-167 2 -172 16 -4 10 30 52 111 133 102 104 116 122 116 152 0 30 -18 52 -193
226 -174 175 -196 193 -226 193 -30 0 -48 -14 -152 -116 -81 -81 -123 -115
-133 -111 -14 5 -16 31 -16 172 0 163 0 166 -25 190 l-24 25 -271 0 -271 0
-24 -25z m455 -284 c0 -176 3 -182 110 -226 121 -51 115 -53 243 74 l113 111
112 -113 111 -112 -110 -112 c-127 -128 -125 -121 -74 -243 44 -107 50 -110
226 -110 l149 0 0 -160 0 -160 -149 0 c-176 0 -182 -3 -226 -110 -51 -122 -53
-115 74 -243 l110 -112 -111 -112 -112 -113 -113 111 c-128 127 -122 125 -243
74 -107 -44 -110 -50 -110 -226 l0 -149 -160 0 -160 0 0 149 c0 176 -3 182
-110 226 -122 51 -115 53 -243 -74 l-112 -110 -112 111 -113 112 111 113 c127
128 125 122 74 243 -44 107 -50 110 -226 110 l-149 0 0 160 0 160 149 0 c176
0 182 3 226 110 51 121 53 115 -74 243 l-111 113 113 112 112 111 112 -110
c128 -127 121 -125 243 -74 107 44 110 50 110 226 l0 149 160 0 160 0 0 -149z"/>
<path d="M2441 3904 c-253 -68 -410 -331 -346 -579 62 -237 291 -393 529 -358
213 30 379 195 409 407 48 333 -269 617 -592 530z m254 -175 c237 -112 246
-441 15 -568 -60 -33 -71 -36 -150 -36 -78 0 -91 3 -148 34 -249 135 -220 488
48 585 63 23 170 16 235 -15z"/>
<path d="M825 1735 c-21 -20 -25 -34 -25 -80 l0 -55 -295 0 -296 0 -24 -25
-25 -24 0 -591 0 -591 25 -24 24 -25 296 0 295 0 0 -55 c0 -46 4 -60 25 -80
l24 -25 351 0 351 0 24 25 c22 21 25 33 25 95 l0 70 71 -36 c149 -75 142 -74
883 -74 718 0 730 1 839 56 28 15 270 153 537 307 267 154 571 329 675 390
281 161 320 208 320 377 0 102 -13 141 -71 210 -79 94 -243 135 -351 88 -15
-7 -207 -115 -426 -241 l-397 -229 -49 45 c-26 25 -61 52 -77 60 -16 8 -310
90 -654 182 -780 210 -718 203 -1062 117 l-238 -59 0 84 c0 76 -2 86 -25 108
l-24 25 -351 0 -351 0 -24 -25z m615 -775 l0 -640 -240 0 -240 0 0 640 0 640
240 0 240 0 0 -640z m3255 541 c16 -9 40 -33 53 -52 20 -28 23 -44 20 -90 -3
-35 -12 -66 -25 -85 -15 -20 -231 -151 -714 -429 -380 -220 -713 -409 -738
-420 -44 -19 -72 -20 -706 -23 -484 -3 -675 0 -715 9 -30 6 -103 36 -162 65
l-108 54 0 424 0 424 245 61 c178 44 263 61 312 61 55 0 175 -29 667 -160 331
-89 620 -168 644 -176 59 -22 94 -71 99 -137 7 -94 -60 -167 -152 -167 -22 0
-258 59 -524 130 -266 72 -492 130 -501 130 -10 0 -29 -9 -44 -21 -33 -26 -37
-86 -7 -114 22 -19 27 -21 606 -175 389 -104 424 -112 490 -108 157 11 277
127 294 288 l6 55 145 84 c548 316 678 389 695 394 30 8 86 -2 120 -22z
m-3895 -541 l0 -480 -240 0 -240 0 0 480 0 480 240 0 240 0 0 -480z"/>
<path d="M1145 615 c-22 -21 -25 -33 -25 -95 0 -62 3 -74 25 -95 32 -33 78
-33 110 0 22 21 25 33 25 95 0 62 -3 74 -25 95 -15 16 -36 25 -55 25 -19 0
-40 -9 -55 -25z"/>
</g>
</svg>
