<?xml version="1.0" standalone="no"?>
<!DOCTYPE svg PUBLIC "-//W3C//DTD SVG 20010904//EN"
 "http://www.w3.org/TR/2001/REC-SVG-20010904/DTD/svg10.dtd">
<svg version="1.0" xmlns="http://www.w3.org/2000/svg"
 width="512.000000pt" height="512.000000pt" viewBox="0 0 512.000000 512.000000"
 preserveAspectRatio="xMidYMid meet">

<g transform="translate(0.000000,512.000000) scale(0.100000,-0.100000)"
fill="#fedf00" stroke="none">
<path d="M2483 5098 c-23 -13 -84 -60 -135 -106 -436 -390 -942 -583 -1602
-611 -217 -9 -248 -18 -296 -88 -25 -36 -25 -41 -33 -322 -12 -405 -3 -1058
17 -1261 56 -569 176 -1008 377 -1372 281 -510 717 -901 1305 -1171 180 -83
403 -167 444 -167 17 0 92 23 167 51 484 181 880 431 1183 745 457 475 692
1054 776 1914 20 203 29 856 17 1261 -8 281 -8 286 -33 322 -48 70 -79 79
-296 88 -668 28 -1190 231 -1628 632 -122 111 -180 130 -263 85z m173 -480
c244 -196 539 -354 843 -452 212 -69 406 -106 680 -131 85 -8 157 -17 160 -21
13 -12 6 -1156 -7 -1284 -53 -513 -138 -838 -305 -1165 -266 -522 -722 -906
-1379 -1161 l-88 -34 -87 34 c-594 230 -1045 584 -1305 1023 -214 361 -320
725 -380 1303 -13 128 -20 1272 -7 1284 3 4 75 13 160 21 274 25 468 62 680
131 304 98 595 254 843 452 49 40 93 72 96 72 3 0 47 -32 96 -72z"/>
<path d="M3230 3219 c-14 -5 -226 -211 -472 -457 l-448 -446 -207 206 c-198
196 -210 206 -255 213 -139 21 -246 -111 -198 -242 14 -37 546 -571 587 -589
55 -24 123 -18 174 15 71 46 1035 1019 1054 1063 50 123 -32 249 -162 247 -26
0 -59 -5 -73 -10z"/>
</g>
</svg>
