<?xml version="1.0" standalone="no"?>
<!DOCTYPE svg PUBLIC "-//W3C//DTD SVG 20010904//EN"
 "http://www.w3.org/TR/2001/REC-SVG-20010904/DTD/svg10.dtd">
<svg version="1.0" xmlns="http://www.w3.org/2000/svg"
 width="512.000000pt" height="512.000000pt" viewBox="0 0 512.000000 512.000000"
 preserveAspectRatio="xMidYMid meet">

<g transform="translate(0.000000,512.000000) scale(0.100000,-0.100000)"
fill="#90ad3c" stroke="none">
<path d="M2170 5106 c-273 -58 -593 -141 -659 -172 -92 -43 -195 -142 -234
-226 -54 -114 -58 -146 -56 -485 l1 -312 -31 -38 c-50 -60 -64 -124 -59 -271
3 -98 8 -135 22 -162 37 -70 99 -118 172 -134 30 -7 32 -10 48 -94 44 -222
168 -421 348 -554 l70 -52 -4 -146 c-5 -180 -12 -200 -76 -200 -47 0 -892
-230 -1016 -277 -224 -84 -389 -284 -440 -533 -46 -229 -44 -292 9 -306 63
-16 96 18 109 111 19 137 49 255 83 323 64 129 186 232 334 280 101 33 439
125 443 121 42 -56 435 -495 459 -513 57 -43 106 -60 182 -59 59 0 100 11 262
66 l193 65 187 -65 c160 -56 198 -66 259 -67 60 0 80 4 136 32 62 30 81 50
289 287 122 140 225 255 228 255 20 0 441 -124 441 -130 0 -4 -7 -21 -15 -36
-8 -16 -15 -50 -15 -75 l0 -47 -56 -22 -55 -23 -38 37 c-45 44 -99 60 -154 45
-46 -12 -189 -144 -218 -201 -34 -66 -22 -128 36 -188 l33 -35 -21 -51 -21
-52 -61 -6 c-66 -7 -98 -25 -133 -76 -20 -30 -22 -45 -22 -165 0 -120 2 -135
23 -165 36 -53 70 -73 135 -78 l58 -4 21 -52 21 -51 -38 -42 c-63 -67 -66
-145 -9 -215 l30 -38 -1541 0 -1541 0 -24 24 c-13 13 -27 35 -30 48 -4 14 10
118 29 233 20 114 36 225 36 245 0 45 -27 73 -71 73 -59 0 -66 -18 -110 -279
-27 -159 -39 -254 -35 -283 12 -86 86 -176 165 -200 28 -8 512 -11 1814 -11
l1775 0 6 -35 c8 -43 50 -94 93 -111 21 -9 73 -14 150 -14 104 0 123 3 157 23
49 28 76 77 76 140 l0 48 55 25 55 26 45 -40 c25 -22 60 -43 78 -46 66 -12 96
3 190 93 100 97 117 123 117 181 0 47 -17 85 -54 119 -31 29 -32 36 -6 95 19
45 21 46 63 46 58 0 126 36 152 80 17 30 20 53 20 165 0 116 -2 134 -22 165
-29 47 -72 70 -139 77 -55 6 -56 7 -75 50 -25 58 -24 65 7 94 37 34 54 72 54
119 0 58 -17 84 -112 177 -60 58 -95 84 -124 92 -53 14 -105 -1 -154 -45 l-38
-35 -44 17 c-62 25 -68 31 -68 83 0 94 -71 161 -171 161 -35 0 -62 8 -96 28
-26 15 -75 38 -108 50 -120 44 -959 272 -1002 272 -64 0 -73 24 -73 204 l0
144 68 53 c175 138 279 296 332 506 11 42 20 88 20 103 0 23 6 28 50 39 70 18
123 60 154 122 24 50 26 61 26 196 0 162 -9 195 -65 253 -32 33 -34 38 -25 70
14 48 13 349 -1 389 -19 53 -81 69 -119 31 -18 -18 -20 -33 -20 -150 0 -110
-2 -130 -15 -130 -9 0 -68 15 -133 34 -534 157 -1123 154 -1660 -8 l-113 -34
3 242 3 242 33 66 c39 80 113 149 188 177 28 11 176 50 330 87 384 93 384 93
797 -4 387 -90 420 -105 508 -233 42 -62 73 -78 117 -57 14 7 31 26 36 41 29
82 -157 274 -309 319 -16 5 -167 40 -335 79 -337 79 -445 91 -570 65z m460
-1031 c175 -21 352 -57 507 -105 69 -21 126 -40 129 -42 9 -10 -20 -83 -41
-104 -31 -31 -68 -31 -187 1 -475 126 -968 126 -1423 0 -110 -30 -158 -32
-184 -6 -24 24 -48 98 -35 110 32 29 418 121 584 140 52 6 109 13 125 15 88
10 405 4 525 -9z m-69 -315 c146 -15 326 -48 447 -81 165 -47 247 -37 325 39
l37 36 0 -124 c-1 -83 -5 -130 -13 -141 -21 -27 -54 -39 -107 -39 -65 0 -100
-30 -100 -87 0 -79 -39 -224 -84 -317 -135 -278 -470 -466 -790 -443 -298 22
-564 194 -687 442 -43 88 -79 215 -79 280 0 57 -16 100 -43 113 -12 6 -48 12
-80 15 -92 6 -101 21 -105 167 -2 66 -1 120 3 120 4 0 23 -14 43 -31 82 -72
145 -77 342 -26 302 78 610 105 891 77z m-422 -1290 c167 -34 344 -22 508 34
l71 24 4 -131 c3 -122 5 -136 31 -181 15 -27 27 -52 27 -57 0 -4 -102 -105
-226 -223 l-227 -216 -166 158 c-91 87 -194 185 -229 218 l-62 59 32 64 c30
59 32 72 36 187 l4 123 49 -19 c27 -11 93 -29 148 -40z m-200 -587 c132 -125
238 -230 235 -234 -9 -14 -258 -92 -295 -92 -71 0 -94 19 -276 227 -97 111
-185 210 -195 222 -18 20 -18 20 124 61 79 23 149 42 156 42 6 1 120 -101 251
-226z m1170 187 c79 -22 146 -42 148 -44 5 -5 -324 -381 -373 -428 -35 -31
-98 -50 -139 -40 -61 15 -265 87 -265 94 0 7 472 458 480 458 3 0 70 -18 149
-40z m1065 -368 c10 -86 34 -118 121 -158 127 -59 175 -58 247 6 l45 39 63
-64 63 -63 -36 -43 c-60 -70 -61 -129 -6 -250 40 -87 72 -112 154 -119 l60 -5
0 -90 0 -90 -55 -5 c-88 -9 -117 -30 -157 -117 -58 -125 -57 -182 4 -252 l36
-43 -63 -63 -63 -64 -45 39 c-71 63 -119 63 -259 0 -75 -34 -100 -69 -109
-152 l-7 -58 -88 0 -89 0 0 43 c0 24 -10 62 -22 87 -20 39 -33 50 -102 84
-126 62 -184 58 -261 -15 l-31 -29 -64 65 -63 64 36 40 c20 22 41 58 48 80 11
36 9 48 -15 113 -50 139 -90 178 -183 178 l-53 0 0 95 0 95 53 0 c93 0 133 39
183 178 24 65 26 77 15 113 -7 22 -28 58 -48 80 l-37 40 62 62 c47 47 65 59
76 52 8 -6 31 -23 52 -40 32 -25 46 -30 94 -30 45 0 71 7 135 40 96 48 115 72
122 153 l6 62 87 0 87 0 7 -58z"/>
<path d="M3997 1310 c-126 -32 -231 -136 -266 -263 -19 -68 -10 -182 19 -243
99 -205 351 -274 537 -148 184 125 210 392 54 552 -82 84 -235 129 -344 102z
m168 -159 c165 -75 172 -306 12 -386 -145 -72 -307 28 -307 190 0 154 158 259
295 196z"/>
<path d="M1260 1117 c-19 -7 -44 -27 -57 -46 -21 -31 -23 -45 -23 -161 0 -116
2 -130 23 -161 38 -57 64 -60 402 -57 267 3 303 5 326 21 46 31 54 60 54 197
0 137 -8 166 -54 197 -23 16 -59 18 -331 20 -220 2 -315 -1 -340 -10z m575
-207 l0 -65 -252 -3 -253 -2 0 70 0 70 253 -2 252 -3 0 -65z"/>
</g>
</svg>
